<?xml version="1.0" encoding="utf-8"?>
<!-- Generator: Adobe Illustrator 16.0.0, SVG Export Plug-In . SVG Version: 6.00 Build 0)  -->
<!DOCTYPE svg PUBLIC "-//W3C//DTD SVG 1.1//EN" "http://www.w3.org/Graphics/SVG/1.1/DTD/svg11.dtd">
<svg version="1.1" id="Layer_1" xmlns="http://www.w3.org/2000/svg" xmlns:xlink="http://www.w3.org/1999/xlink" x="0px" y="0px"
	 width="491.579px" height="164.737px" viewBox="0 0 491.579 164.737" enable-background="new 0 0 491.579 164.737"
	 xml:space="preserve">
<path fill="#FFFFFF" d="M122.846,102.658L122.846,102.658c-2.727,0-4.938-2.211-4.938-4.938V17.266c0-2.728,2.211-4.938,4.938-4.938
	s4.938,2.211,4.938,4.938v80.455C127.784,100.447,125.573,102.658,122.846,102.658"/>
<path fill="#FFFFFF" d="M141.67,102.658L141.67,102.658c-2.727,0-4.938-2.211-4.938-4.938V17.266c0-2.728,2.211-4.938,4.938-4.938
	c2.727,0,4.938,2.211,4.938,4.938v80.455C146.608,100.447,144.396,102.658,141.67,102.658"/>
<path fill="#FFFFFF" d="M213.909,43.402c-6.624-6.823-14.674-10.237-24.148-10.237c-9.47,0-17.497,3.358-24.088,10.06V17.386
	c0-2.794-2.265-5.059-5.059-5.059c-2.793,0-5.058,2.265-5.058,5.059v50.525h0.001c0,0.02-0.001,0.04-0.001,0.061
	c0,9.556,3.291,17.725,9.876,24.51c6.583,6.785,14.694,10.176,24.329,10.176c9.635,0,17.724-3.391,24.27-10.176
	c6.543-6.785,9.815-14.954,9.815-24.51C223.846,58.417,220.534,50.228,213.909,43.402 M206.804,85.857
	c-4.698,4.859-10.379,7.287-17.043,7.287c-6.907,0-12.646-2.408-17.223-7.227c-4.576-4.818-6.865-10.678-6.865-17.584
	c0-6.905,2.367-12.867,7.106-17.886c4.737-5.017,10.377-7.527,16.922-7.527c6.543,0,12.204,2.51,16.982,7.527
	c4.776,5.019,7.166,10.96,7.166,17.826C213.849,75.138,211.501,81,206.804,85.857"/>
<path fill="#FFFFFF" d="M401.516,102.658L401.516,102.658c-2.728,0-4.938-2.209-4.938-4.936V17.265c0-2.727,2.211-4.938,4.938-4.938
	c2.727,0,4.938,2.211,4.938,4.938v80.458C406.453,100.449,404.242,102.658,401.516,102.658"/>
<path fill="#FFFFFF" d="M476.539,69.418h-51.021c0.4,7.226,2.831,13.027,7.286,17.402c4.457,4.377,9.775,6.564,15.959,6.564
	c9.226,0,16.538-3.984,21.934-11.953c1.343-1.985,3.955-2.657,6.086-1.562c2.5,1.287,3.362,4.473,1.806,6.816
	c-3.152,4.746-6.711,8.405-10.676,10.975c-5.139,3.334-11.282,4.998-18.427,4.998c-9.876,0-18.027-3.391-24.449-10.176
	c-6.426-6.785-9.636-14.954-9.636-24.51c0-9.554,3.23-17.744,9.696-24.57c6.462-6.824,14.472-10.237,24.027-10.237
	c9.555,0,17.543,3.232,23.968,9.695c5.033,5.066,8.17,11.599,9.406,19.599C483.063,66.112,480.236,69.418,476.539,69.418
	 M472.009,60.625c-1.204-5.619-3.937-9.996-8.191-13.128c-4.257-3.132-9.153-4.697-14.693-4.697
	c-11.243,0-18.711,5.943-22.402,17.825H472.009z"/>
<path fill="#FFFFFF" d="M344.356,37.862L344.356,37.862c0-2.395-1.94-4.336-4.336-4.336h-8.01v-16.26
	c0-2.727-2.21-4.938-4.937-4.938c-2.728,0-4.938,2.211-4.938,4.938v16.26h-7.769c-2.396,0-4.337,1.941-4.337,4.336
	c0,2.395,1.941,4.336,4.337,4.336h7.769v48.417c0,6.651,5.393,12.043,12.044,12.043h3.542c2.728,0,4.937-2.209,4.937-4.937
	s-2.209-4.938-4.937-4.938h-0.772c-2.728,0-4.938-2.211-4.938-4.938V42.198h8.01C342.416,42.198,344.356,40.256,344.356,37.862"/>
<path fill="#FFFFFF" d="M387.63,37.862L387.63,37.862c0-2.395-1.94-4.336-4.336-4.336h-8.01v-16.26c0-2.727-2.21-4.938-4.937-4.938
	c-2.728,0-4.938,2.211-4.938,4.938v16.26h-7.769c-2.396,0-4.336,1.941-4.336,4.336c0,2.395,1.94,4.336,4.336,4.336h7.769v48.417
	c0,6.651,5.394,12.043,12.044,12.043h3.542c2.728,0,4.938-2.209,4.938-4.937s-2.21-4.938-4.938-4.938h-2.097
	c-1.996,0-3.614-1.617-3.614-3.613V42.198h8.01C385.689,42.198,387.63,40.256,387.63,37.862"/>
<path fill="#FFFFFF" d="M102.973,33.285c-2.794,0-5.058,2.265-5.058,5.058v35.169h-0.001c0,10.493-8.536,19.029-19.029,19.029
	c-10.493,0-19.03-8.536-19.03-19.029V38.343c0-2.793-2.265-5.058-5.059-5.058c-2.793,0-5.058,2.265-5.058,5.058v34.513
	c0,16.341,13.373,30.108,29.71,29.798c15.838-0.301,28.583-13.233,28.583-29.143V38.343C108.03,35.55,105.767,33.285,102.973,33.285
	"/>
<path fill="#FFFFFF" d="M291.147,43.402c-6.625-6.824-14.675-10.238-24.149-10.238c-9.556,0-17.644,3.414-24.269,10.238
	c-6.624,6.825-9.936,15.015-9.936,24.57c0,9.556,3.292,17.725,9.877,24.51c6.582,6.785,14.693,10.176,24.328,10.176
	c9.636,0,17.725-3.391,24.271-10.176c6.543-6.785,9.814-14.954,9.814-24.51C301.083,58.417,297.771,50.227,291.147,43.402
	 M266.938,92.312c-13.478,0-24.402-10.924-24.402-24.401c0-13.477,10.925-24.401,24.402-24.401
	c13.477,0,24.401,10.925,24.401,24.401C291.34,81.389,280.415,92.312,266.938,92.312"/>
<path fill="#FFFFFF" d="M39.861,47.128L39.861,47.128c0,2.396-1.941,4.336-4.336,4.336h-8.01v46.257c0,2.728-2.21,4.937-4.937,4.937
	c-2.727,0-4.938-2.209-4.938-4.937V51.465H9.871c-2.395,0-4.336-1.941-4.336-4.336c0-2.395,1.941-4.336,4.336-4.336h7.769V24.372
	c0-6.652,5.393-12.044,12.044-12.044h5.27c2.727,0,4.938,2.211,4.938,4.938c0,2.728-2.211,4.938-4.938,4.938h-2.501
	c-2.727,0-4.938,2.211-4.938,4.938v15.651h8.01C37.92,42.792,39.861,44.734,39.861,47.128"/>
<path fill="#FFFFFF" d="M52.065,129.746c0-0.591,0.483-1.074,1.047-1.074h6.952c2.147,0,3.838,0.617,4.912,1.664
	c0.779,0.805,1.208,1.799,1.208,3.008v0.051c0,2.445-1.503,3.705-2.98,4.35c2.228,0.672,4.027,1.961,4.027,4.537v0.053
	c0,3.221-2.711,5.127-6.818,5.127h-7.301c-0.564,0-1.047-0.484-1.047-1.072V129.746z M59.715,137.047
	c2.549,0,4.322-1.156,4.322-3.355v-0.055c0-1.85-1.477-3.061-4.161-3.061h-5.717v6.471H59.715z M60.466,145.555
	c2.846,0,4.617-1.262,4.617-3.354v-0.054c0-2.041-1.718-3.221-4.992-3.221h-5.932v6.629H60.466z"/>
<path fill="#FFFFFF" d="M77.161,147.783c-3.812,0-6.925-2.926-6.925-7.221v-0.054c0-4,2.818-7.22,6.657-7.22
	c4.106,0,6.442,3.355,6.442,7.031c0,0.563-0.457,0.967-0.967,0.967H72.33c0.294,3.006,2.415,4.697,4.884,4.697
	c1.718,0,2.98-0.67,4-1.611c0.161-0.135,0.348-0.242,0.59-0.242c0.51,0,0.913,0.404,0.913,0.889c0,0.239-0.107,0.48-0.322,0.67
	C81.079,146.951,79.522,147.783,77.161,147.783 M81.268,139.756c-0.215-2.521-1.664-4.723-4.43-4.723
	c-2.415,0-4.24,2.014-4.508,4.723H81.268z"/>
<path fill="#FFFFFF" d="M94.284,145.984c-0.188-0.135-0.376-0.402-0.376-0.752c0-0.484,0.403-0.885,0.913-0.885
	c0.188,0,0.375,0.053,0.51,0.161c1.423,0.966,2.899,1.476,4.402,1.476c1.664,0,2.872-0.859,2.872-2.201v-0.053
	c0-1.396-1.637-1.934-3.463-2.443c-2.173-0.617-4.589-1.369-4.589-3.92v-0.053c0-2.389,1.986-3.972,4.724-3.972
	c1.476,0,3.086,0.456,4.429,1.181c0.268,0.16,0.509,0.457,0.509,0.857c0,0.484-0.402,0.889-0.912,0.889
	c-0.188,0-0.349-0.057-0.456-0.109c-1.181-0.67-2.443-1.074-3.624-1.074c-1.637,0-2.684,0.859-2.684,2.014v0.055
	c0,1.313,1.718,1.824,3.57,2.389c2.147,0.643,4.456,1.477,4.456,3.972v0.056c0,2.629-2.175,4.158-4.939,4.158
	C97.8,147.729,95.787,147.059,94.284,145.984"/>
<path fill="#FFFFFF" d="M114.469,147.783c-3.812,0-6.925-2.926-6.925-7.221v-0.054c0-4,2.818-7.22,6.657-7.22
	c4.106,0,6.442,3.355,6.442,7.031c0,0.563-0.457,0.967-0.967,0.967h-10.039c0.295,3.006,2.416,4.697,4.885,4.697
	c1.718,0,2.98-0.67,4-1.611c0.161-0.135,0.349-0.242,0.59-0.242c0.51,0,0.913,0.404,0.913,0.889c0,0.239-0.107,0.48-0.322,0.67
	C118.387,146.951,116.831,147.783,114.469,147.783 M118.576,139.756c-0.215-2.521-1.664-4.723-4.429-4.723
	c-2.416,0-4.241,2.014-4.51,4.723H118.576z"/>
<path fill="#FFFFFF" d="M130.358,147.783c-3.811,0-6.926-2.926-6.926-7.221v-0.054c0-4,2.819-7.22,6.658-7.22
	c4.107,0,6.442,3.355,6.442,7.031c0,0.563-0.456,0.967-0.966,0.967h-10.039c0.294,3.006,2.415,4.697,4.885,4.697
	c1.718,0,2.978-0.67,3.999-1.611c0.161-0.135,0.348-0.242,0.59-0.242c0.51,0,0.914,0.404,0.914,0.889c0,0.239-0.109,0.48-0.323,0.67
	C134.278,146.951,132.721,147.783,130.358,147.783 M134.465,139.756c-0.216-2.521-1.665-4.723-4.43-4.723
	c-2.415,0-4.24,2.014-4.508,4.723H134.465z"/>
<path fill="#FFFFFF" d="M140.181,134.496c0-0.564,0.456-1.047,1.02-1.047c0.591,0,1.047,0.456,1.047,1.047V136
	c0.913-1.504,2.361-2.711,4.75-2.711c3.355,0,5.315,2.254,5.315,5.557v7.701c0,0.592-0.456,1.049-1.02,1.049
	c-0.591,0-1.047-0.457-1.047-1.049v-7.191c0-2.577-1.395-4.188-3.839-4.188c-2.387,0-4.159,1.744-4.159,4.35v7.029
	c0,0.592-0.43,1.049-1.021,1.049c-0.59,0-1.046-0.457-1.046-1.049V134.496z"/>
<path fill="#FFFFFF" d="M157.707,144.509c0.726,0,1.262,0.536,1.262,1.261v0.539c0,0.723-0.536,1.287-1.262,1.287
	c-0.75,0-1.288-0.564-1.288-1.287v-0.539C156.418,145.045,156.957,144.509,157.707,144.509"/>
<path fill="#FFFFFF" d="M171.691,129.746c0-0.591,0.484-1.074,1.047-1.074h6.952c2.147,0,3.839,0.617,4.911,1.664
	c0.779,0.805,1.208,1.799,1.208,3.008v0.051c0,2.445-1.502,3.705-2.978,4.35c2.228,0.672,4.027,1.961,4.027,4.537v0.053
	c0,3.221-2.712,5.127-6.819,5.127h-7.301c-0.563,0-1.047-0.484-1.047-1.072V129.746z M179.341,137.047
	c2.551,0,4.321-1.156,4.321-3.355v-0.055c0-1.85-1.476-3.061-4.16-3.061h-5.718v6.471H179.341z M180.093,145.555
	c2.845,0,4.615-1.262,4.615-3.354v-0.054c0-2.041-1.718-3.221-4.992-3.221h-5.932v6.629H180.093z"/>
<path fill="#FFFFFF" d="M196.786,147.783c-3.811,0-6.924-2.926-6.924-7.221v-0.054c0-4,2.819-7.22,6.656-7.22
	c4.107,0,6.442,3.355,6.442,7.031c0,0.563-0.456,0.967-0.966,0.967h-10.039c0.296,3.006,2.415,4.697,4.885,4.697
	c1.718,0,2.98-0.67,4.001-1.611c0.161-0.135,0.348-0.242,0.59-0.242c0.508,0,0.912,0.404,0.912,0.889c0,0.239-0.107,0.48-0.323,0.67
	C200.706,146.951,199.149,147.783,196.786,147.783 M200.893,139.756c-0.214-2.521-1.663-4.723-4.428-4.723
	c-2.415,0-4.242,2.014-4.51,4.723H200.893z"/>
<path fill="#FFFFFF" d="M214.85,128.777c0-0.561,0.456-1.045,1.02-1.045c0.591,0,1.047,0.484,1.047,1.045v17.771
	c0,0.591-0.43,1.048-1.021,1.048c-0.59,0-1.046-0.457-1.046-1.048V128.777z"/>
<path fill="#FFFFFF" d="M220.862,140.59v-0.055c0-3.918,3.059-7.246,7.247-7.246c4.161,0,7.22,3.273,7.22,7.193v0.053
	c0,3.92-3.087,7.248-7.273,7.248C223.895,147.783,220.862,144.51,220.862,140.59 M233.21,140.59v-0.055
	c0-2.979-2.228-5.422-5.154-5.422c-3.006,0-5.073,2.443-5.073,5.369v0.053c0,2.98,2.2,5.395,5.126,5.395
	C231.115,145.93,233.21,143.516,233.21,140.59"/>
<path fill="#FFFFFF" d="M243.947,147.674h-0.107c-0.564,0-0.939-0.348-1.181-0.885l-5.208-11.756
	c-0.053-0.189-0.133-0.375-0.133-0.564c0-0.537,0.455-1.02,1.046-1.02c0.591,0,0.885,0.35,1.046,0.805l4.483,10.844l4.562-10.896
	c0.135-0.402,0.43-0.752,0.968-0.752c0.562,0,1.02,0.457,1.02,1.02c0,0.189-0.054,0.375-0.107,0.512l-5.235,11.809
	C244.857,147.326,244.51,147.674,243.947,147.674"/>
<path fill="#FFFFFF" d="M259.407,147.783c-3.812,0-6.926-2.926-6.926-7.221v-0.054c0-4,2.819-7.22,6.656-7.22
	c4.106,0,6.441,3.355,6.441,7.031c0,0.563-0.456,0.967-0.966,0.967h-10.039c0.296,3.006,2.415,4.697,4.885,4.697
	c1.719,0,2.98-0.67,4.002-1.611c0.16-0.135,0.348-0.242,0.59-0.242c0.51,0,0.912,0.404,0.912,0.889c0,0.239-0.107,0.48-0.323,0.67
	C263.325,146.951,261.769,147.783,259.407,147.783 M263.513,139.756c-0.214-2.521-1.663-4.723-4.429-4.723
	c-2.414,0-4.241,2.014-4.51,4.723H263.513z"/>
<path fill="#FFFFFF" d="M282.438,146.547c0,0.592-0.458,1.049-1.021,1.049c-0.591,0-1.047-0.457-1.047-1.049v-1.877
	c-1.129,1.664-2.766,3.086-5.314,3.086c-3.328,0-6.632-2.631-6.632-7.192v-0.056c0-4.535,3.304-7.219,6.632-7.219
	c2.577,0,4.24,1.395,5.314,2.951v-7.463c0-0.588,0.431-1.046,1.02-1.046c0.59,0,1.048,0.458,1.048,1.046V146.547z M270.545,140.482
	v0.053c0,3.276,2.282,5.369,4.886,5.369c2.577,0,5.019-2.174,5.019-5.369v-0.053c0-3.193-2.441-5.341-5.019-5.341
	C272.747,135.142,270.545,137.127,270.545,140.482"/>
<path fill="#FFFFFF" d="M288.045,144.509c0.726,0,1.262,0.536,1.262,1.261v0.539c0,0.723-0.536,1.287-1.262,1.287
	c-0.75,0-1.288-0.564-1.288-1.287v-0.539C286.757,145.045,287.295,144.509,288.045,144.509"/>
<path fill="#FFFFFF" d="M302.028,129.746c0-0.591,0.483-1.074,1.047-1.074h6.952c2.146,0,3.839,0.617,4.911,1.664
	c0.778,0.805,1.208,1.799,1.208,3.008v0.051c0,2.445-1.502,3.705-2.979,4.35c2.229,0.672,4.027,1.961,4.027,4.537v0.053
	c0,3.221-2.712,5.127-6.819,5.127h-7.301c-0.563,0-1.047-0.484-1.047-1.072V129.746z M309.678,137.047
	c2.552,0,4.321-1.156,4.321-3.355v-0.055c0-1.85-1.476-3.061-4.16-3.061h-5.718v6.471H309.678z M310.431,145.555
	c2.845,0,4.614-1.262,4.614-3.354v-0.054c0-2.041-1.718-3.221-4.992-3.221h-5.932v6.629H310.431z"/>
<path fill="#FFFFFF" d="M327.123,147.783c-3.811,0-6.924-2.926-6.924-7.221v-0.054c0-4,2.819-7.22,6.656-7.22
	c4.106,0,6.441,3.355,6.441,7.031c0,0.563-0.456,0.967-0.966,0.967h-10.039c0.296,3.006,2.415,4.697,4.885,4.697
	c1.719,0,2.98-0.67,4.001-1.611c0.161-0.135,0.349-0.242,0.591-0.242c0.508,0,0.911,0.404,0.911,0.889
	c0,0.239-0.106,0.48-0.322,0.67C331.043,146.951,329.486,147.783,327.123,147.783 M331.23,139.756
	c-0.215-2.521-1.663-4.723-4.429-4.723c-2.415,0-4.241,2.014-4.51,4.723H331.23z"/>
<path fill="#FFFFFF" d="M344.249,145.984c-0.188-0.135-0.375-0.402-0.375-0.752c0-0.484,0.401-0.885,0.911-0.885
	c0.19,0,0.377,0.053,0.51,0.161c1.424,0.966,2.9,1.476,4.404,1.476c1.663,0,2.871-0.859,2.871-2.201v-0.053
	c0-1.396-1.637-1.934-3.462-2.443c-2.175-0.617-4.591-1.369-4.591-3.92v-0.053c0-2.389,1.985-3.972,4.724-3.972
	c1.476,0,3.087,0.456,4.43,1.181c0.269,0.16,0.511,0.457,0.511,0.857c0,0.484-0.403,0.889-0.913,0.889
	c-0.188,0-0.35-0.057-0.456-0.109c-1.182-0.67-2.444-1.074-3.623-1.074c-1.638,0-2.687,0.859-2.687,2.014v0.055
	c0,1.313,1.718,1.824,3.571,2.389c2.146,0.643,4.456,1.477,4.456,3.972v0.056c0,2.629-2.176,4.158-4.94,4.158
	C347.766,147.729,345.753,147.059,344.249,145.984"/>
<path fill="#FFFFFF" d="M358.367,128.777c0-0.561,0.456-1.045,1.02-1.045c0.592,0,1.047,0.484,1.047,1.045V136
	c0.913-1.504,2.361-2.713,4.75-2.713c3.355,0,5.315,2.256,5.315,5.559v7.702c0,0.591-0.456,1.048-1.02,1.048
	c-0.592,0-1.048-0.457-1.048-1.048v-7.192c0-2.578-1.395-4.188-3.839-4.188c-2.387,0-4.159,1.744-4.159,4.35v7.03
	c0,0.591-0.43,1.048-1.021,1.048c-0.59,0-1.046-0.457-1.046-1.048V128.777z"/>
<path fill="#FFFFFF" d="M373.854,143.436v-0.057c0-2.924,2.416-4.48,5.932-4.48c1.771,0,3.033,0.241,4.268,0.59v-0.482
	c0-2.497-1.529-3.784-4.134-3.784c-1.396,0-2.576,0.321-3.598,0.778c-0.133,0.053-0.268,0.08-0.375,0.08
	c-0.483,0-0.913-0.402-0.913-0.887c0-0.429,0.297-0.752,0.565-0.859c1.369-0.59,2.764-0.939,4.536-0.939
	c1.96,0,3.462,0.512,4.481,1.531c0.94,0.939,1.425,2.281,1.425,4.053v7.598c0,0.59-0.431,1.02-0.994,1.02
	c-0.591,0-0.994-0.43-0.994-0.969v-1.26c-0.966,1.26-2.577,2.389-5.02,2.389C376.458,147.756,373.854,146.279,373.854,143.436
	 M384.081,142.361v-1.342c-1.021-0.295-2.39-0.592-4.081-0.592c-2.604,0-4.054,1.127-4.054,2.873v0.053
	c0,1.744,1.611,2.764,3.491,2.764C381.985,146.117,384.081,144.562,384.081,142.361"/>
<path fill="#FFFFFF" d="M390.44,134.496c0-0.564,0.456-1.047,1.02-1.047c0.591,0,1.047,0.456,1.047,1.047v2.604
	c1.021-2.309,3.032-3.705,4.778-3.705c0.617,0,1.018,0.459,1.018,1.047c0,0.564-0.375,0.968-0.911,1.049
	c-2.684,0.32-4.885,2.335-4.885,6.333v4.724c0,0.565-0.43,1.049-1.021,1.049c-0.59,0-1.046-0.457-1.046-1.049V134.496z"/>
<path fill="#FFFFFF" d="M406.786,147.783c-3.812,0-6.924-2.926-6.924-7.221v-0.054c0-4,2.818-7.22,6.655-7.22
	c4.107,0,6.442,3.355,6.442,7.031c0,0.563-0.456,0.967-0.966,0.967h-10.039c0.296,3.006,2.415,4.697,4.885,4.697
	c1.718,0,2.98-0.67,4.001-1.611c0.161-0.135,0.349-0.242,0.59-0.242c0.509,0,0.912,0.404,0.912,0.889c0,0.239-0.106,0.48-0.323,0.67
	C410.705,146.951,409.149,147.783,406.786,147.783 M410.893,139.756c-0.214-2.521-1.662-4.723-4.428-4.723
	c-2.415,0-4.242,2.014-4.51,4.723H410.893z"/>
<path fill="#FFFFFF" d="M429.817,146.547c0,0.592-0.458,1.049-1.02,1.049c-0.591,0-1.047-0.457-1.047-1.049v-1.877
	c-1.129,1.664-2.767,3.086-5.315,3.086c-3.328,0-6.629-2.631-6.629-7.192v-0.056c0-4.535,3.301-7.219,6.629-7.219
	c2.577,0,4.241,1.395,5.315,2.951v-7.463c0-0.588,0.43-1.046,1.019-1.046c0.59,0,1.048,0.458,1.048,1.046V146.547z M417.926,140.482
	v0.053c0,3.276,2.282,5.369,4.885,5.369c2.577,0,5.021-2.174,5.021-5.369v-0.053c0-3.193-2.444-5.341-5.021-5.341
	C420.128,135.142,417.926,137.127,417.926,140.482"/>
<path fill="#FFFFFF" d="M435.425,144.509c0.727,0,1.263,0.536,1.263,1.261v0.539c0,0.723-0.536,1.287-1.263,1.287
	c-0.75,0-1.288-0.564-1.288-1.287v-0.539C434.137,145.045,434.675,144.509,435.425,144.509"/>
</svg>
