<?xml version="1.0" encoding="utf-8"?>
<!-- Generator: Adobe Illustrator 16.0.0, SVG Export Plug-In . SVG Version: 6.00 Build 0)  -->
<!DOCTYPE svg PUBLIC "-//W3C//DTD SVG 1.1//EN" "http://www.w3.org/Graphics/SVG/1.1/DTD/svg11.dtd">
<svg version="1.1"
	 id="svg4322" sodipodi:docname="New document 3" inkscape:version="0.48.2 r9819" xmlns:dc="http://purl.org/dc/elements/1.1/" xmlns:cc="http://creativecommons.org/ns#" xmlns:rdf="http://www.w3.org/1999/02/22-rdf-syntax-ns#" xmlns:svg="http://www.w3.org/2000/svg" xmlns:sodipodi="http://sodipodi.sourceforge.net/DTD/sodipodi-0.dtd" xmlns:inkscape="http://www.inkscape.org/namespaces/inkscape"
	 xmlns="http://www.w3.org/2000/svg" xmlns:xlink="http://www.w3.org/1999/xlink" x="0px" y="0px" width="1000px"
	 height="283.084px" viewBox="0 0 1000 283.084" enable-background="new 0 0 1000 283.084" xml:space="preserve">
<sodipodi:namedview  inkscape:window-maximized="0" inkscape:window-y="-21" inkscape:window-x="627" inkscape:window-height="1039" inkscape:window-width="1289" inkscape:pageshadow="2" inkscape:pageopacity="0.0" fit-margin-right="0.5" inkscape:current-layer="layer1" fit-margin-bottom="0.5" inkscape:document-units="px" fit-margin-top="0.5" fit-margin-left="0.5" showgrid="false" inkscape:cy="363.62911" inkscape:cx="1307.3562" inkscape:zoom="0.35355339" borderopacity="1.0" bordercolor="#666666" pagecolor="#ffffff" id="base">
	<inkscape:grid  type="xygrid" snapvisiblegridlinesonly="true" enabled="true" visible="true" empspacing="5" id="grid4341">
		</inkscape:grid>
</sodipodi:namedview>
<g id="layer1" transform="translate(1239.9375,-1935.853)" inkscape:groupmode="layer" inkscape:label="Layer 1">
	
		<path id="path4356" sodipodi:nodetypes="cccccc" inkscape:connector-curvature="0" fill="#FFFFFF" stroke="#000000" stroke-width="0.25" d="
		M-17.589-596.388c-8.358,0-28.84-6.285-28.84-31.785c0-35.643,37.249-76.219,48.828-88.747l29.547-31.188v31.062
		C31.946-613.982,4.478-596.388-17.589-596.388z"/>
	
		<path id="path4358" sodipodi:nodetypes="ccccc" inkscape:connector-curvature="0" fill="#FFFFFF" stroke="#000000" stroke-width="0.25" d="
		M395.728-899.126c0-60.138,15.909-113.137,50.002-113.137c20.056,0,40.406,18.316,40.406,83.211
		c0,81.708-29.766,119.703-52.654,119.703C412.022-809.349,395.728-839.632,395.728-899.126L395.728-899.126z"/>
	<g id="g4398" transform="translate(-1357.7384,-491.14632)">
	</g>
	
		<path id="path4406" sodipodi:nodetypes="ssccscscssscscsscsssscscccsccccssccssssccscscccsccsccccscccccsccccsccsscsccccccsccccsscccscscscsccccccsscccccscsccscsssssccssccccscccsccccsccssccssscccccccsccccsccccsccccssscsccccc" inkscape:connector-curvature="0" fill="#FFFFFF" stroke="#000000" stroke-width="0.1448" d="
		M-1136.01-721.046c-4.494,0-6.819-1.386-6.819-6.818c0-12.365,15.13-33.25,15.13-85.769l2.295-335.971
		c0-6.117-0.601-8.081-3.03-8.081c-2.447,0-10.629,8.401-14.248,12.297c-19.639,21.526-43.331,68.576-43.331,119.906
		c0,24.621,4.03,42.871,16.541,61.998c3.021,4.098,6.061,8.089,6.061,12.88c0,6.113-3.83,8.46-8.334,8.46
		c-13.663,0-67.68-23.982-67.68-87.504c0-44.702,30.905-100.397,65.028-130.688c15.52-14.323,41.831-35.86,62.125-35.86
		c15.757,0,27.901,5.38,38.512,12.121c7.262,4.714,9.407,8.016,9.407,15.657v282.338c0,72.418-4.55,97.52-23.17,129.679
		C-1093.526-746.948-1114.741-721.046-1136.01-721.046L-1136.01-721.046z M-26.529-808.852c28.469,0,51.909-44.883,51.909-123.735
		c0-52.308-11.581-79.297-37.754-79.297c-39.889,0-52.126,76.966-52.126,114.496C-65.601-838.696-44.703-808.852-26.529-808.852z
		 M-120.25-855.138c-11.726-84.339,12.177-203.087,90.054-203.087c28.575,0,47.115,17.826,55.576,32.829
		c-0.991-9.886-2.203-23.106,16.289-23.106c12.76,0,22.879,3.085,29.091,5.769c11.748,4.559,13.336,8.31,13.336,14.308
		l-2.652,184.479c31.503-45.564,52.89-86.328,66.039-141.169c-10.129-6.608-17.804-18.908-17.804-32.198
		c0-29.61,17.86-46.973,42.174-46.973c19.891,0,27.905,10.697,27.905,27.779c0.155,7.168-2.021,16.289-2.021,16.289
		c19.138-2.782,56.478-11.238,66.544-11.238c20.089,0,31.441,10.963,31.441,28.284c0,14.897-18.562,69.835-18.562,118.566
		c0,48.589,12.621,76.646,32.451,76.646c15.719,0,27.106-17.762,31.946-39.522c0,0-6.335-26.056-5.808-52.275
		c0-93.499,40.327-157.836,93.817-157.836c26.646,0,41.734,11.285,56.821,31.693c-2.778-15.774,1.935-22.35,15.657-22.35
		c10.933,0,19.47,1.687,30.227,5.96c7.523,3.329,12.705,6.631,12.705,14.496l-3.283,124.501c0,76.611,8.429,94.954,26.517,94.954
		c22.039,0,37.584-48.494,41.416-68.816l1.075-165.979c0-4.902,3.107-9.414,8.793-9.414c7.813,0,17.013,2.069,36.828,6.621
		c7.992,1.604,10.759,7.552,10.759,12.104l-0.207,97.347c14.511-42.537,24.176-76.245,38.174-102.105
		c4.425-8.015,7.09-14.068,19.448-14.068c9.954,0,18.119,2.488,27.975,6.577c20.286,8.859,22.612,22.552,22.612,32.112
		c-0.043,31.636,1.842,78.502,5.483,117.417c0.132,1.85,1.922,1.555,2.173,0.104c7.01-55.028,33.145-122.714,40.966-139.969
		c4.165-9.608,9.756-16.139,21.311-16.139c12.461,0,32.821,8.717,40.863,13.346c11.978,6.852,15.207,16.134,15.207,23.896l-3,93.83
		c0,36.46,1.005,80.161,13.476,99.175c2.836,4.748,7.784,12.436,17.557,12.436c8.312,0,15.34-7.254,20.043-19.678
		c4.915-13.018,7.518-24.284,10.688-37.444c1.303-6.077,4.561-10.104,10.014-10.104c9.947,0,9.876,9.879,9.876,15.947
		c0,15.676-7.037,43.341-14.558,57.716c-9.229,18.496-27.903,29.991-48.498,29.991c-11.084,0-19.733-3.31-25.896-6.729
		c-40.253-24.473-46.085-75.371-46.085-155.957l1.193-49.078c0.052-1.729-1.591-1.624-2.173-0.311
		c-21.268,44.325-42.518,110.253-42.518,178.349c0.145,3.832-1.032,5.902-3.414,7.759c-2.354,1.991-11.539,5.173-19.035,5.173
		c-15.979,0-26.663-8.109-33.569-19.242c-13.99-23.34-17.555-113.492-19.811-166.762c-0.146-3.117-3.604-3.814-5.018-1.241
		c-15.717,24.896-27.119,60.674-34.669,92.275c-7.111,31.747-7.85,71.291-7.85,96.314c0,15.17-5.03,19.966-28.241,19.966
		c-8.899,0-18.817-2.145-30.104-6.414c-3.436-1.253-7.286-4.301-7.604-9.104c-0.271-9.285-0.628-19.193-0.876-28.479
		c-12.111,28.862-27.49,44.188-54.043,44.188c-35.541,0-57.653-28.984-60.356-55.306c-17.832,34.736-47.043,55.432-81.19,55.432
		c-27.453,0-48.85-13.187-63.388-41.542c-6.165,16.119-25.606,41.669-56.568,41.669c-15.832,0-30.872-5.275-45.994-20.932
		c-17.396-18.687-29.515-41.557-29.515-94.1c0-31.805,5.826-63.726,12.5-91.924c1.022-4.288,1.39-7.192-5.965-6.699l-37.977,1.017
		c-17.43,53.771-56.553,129.749-106.571,184.731l1.642,69.574c0,46.254-7.064,93.59-23.786,118.697
		c-13.287,19.406-37.521,42.549-74.072,42.549c-35.165,0-75.13-24.35-75.13-66.67c0-33.273,22.898-63.304,44.446-84.222
		l74.247-68.438L28.41-816.42c-7.949,18.915-41.226,44.952-69.321,44.952c-50.018,0-67.309-46.512-67.309-46.512
		c-13.349,28.156-33.677,45.249-55.987,45.249c-35.541,0-57.653-28.984-60.356-55.306c-17.833,34.736-47.043,55.432-81.191,55.432
		c-27.452,0-49.556-13.01-64.094-41.365c-10.563-21.716-11.918-32.305-11.918-32.305c-13.906,40.825-44.505,74.241-70.961,74.241
		c-40.332,0-66.189-37.896-70.625-102.796c-23.169,54.682-61.767,104.033-133.719,104.033c-48.743,0-75.888-17.603-75.888-30.053
		c0-13.183,15.42-36.416,27.451-36.416c14.489,0,28.19,22.628,49.648,22.628c17.165,0,28.461-17.466,28.461-35.33
		c0-28.743-24.974-52.359-60.735-82.833l-55.18,92.303c-17.206,27.836-48.721,69.069-80.812,69.069
		c-32.701,0-42.806-34.292-42.806-100.005c0-36.948,5.683-127.279,5.683-127.279c0.59-5.538-2.308-6.934-6.062-3.03
		c-35.984,40.236-56.861,93.032-74.473,159.78c-6.023,22.611-10.472,45.138-10.935,54.447c-0.333,14.075-5.749,16.087-22.678,16.087
		c-30.578,0-37.049-8.616-37.049-60.147l0.178-57.156l1.326-148.164c0-10.484,1.2-14.786,11.175-14.786
		c11.936,0,25.394,4.456,34.535,8.333c7.047,2.995,9.298,6.411,8.902,15.216l-1.288,123.517
		c11.614-35.89,19.824-60.642,35.042-89.989c14.707-28.318,36.166-57.266,67.64-57.266c14.156,0,27.914,9.966,39.042,17.097
		c12.093,8.426,13.612,17.021,13.612,26.34c-1.39,40.658-4.167,83.019-4.167,121.976c0,46.889,3.606,59.094,11.364,59.094
		c10.516,0,28.275-27.626,38.79-45.658c13.914-23.545,32.665-56.637,45.911-81.772c-9.597-9.765-15.885-22.534-15.885-36.719
		c0-38.915,33.221-65.155,61.872-65.155c20.297,0,31.188,7.307,31.188,24.623c0,22.334-19.533,48.787-31.062,62.124l55.003,41.366
		c22.53,16.843,39.421,40.634,39.421,66.897c0.145,9.279-2.475,18.119-2.475,18.119c30.4-29.288,47.553-64.511,47.553-91.659
		l0.177-127.986l-60.988-1.768c-4.004,0-8.484-1.047-8.484-10.96c0-12.17,2.624-19.481,7.601-28.814
		c1.555-3.125,3.165-4.247,6.718-4.154l58.602,2.033l2.21-66.999c0.471-16.179,4.758-21.39,14.761-21.39
		c11.272,0,29.05,5.468,43.575,11.137c4.814,2.152,7.47,5.046,7.248,9.458l-3.182,69.826l74.953,4.508
		c9.704,0.544,11.226,3.304,11.226,10.872c0,8.388-1.672,13.057-5.127,20.064c-1.331,2.416-3.392,6.33-6.982,6.363l-75.219,1.238
		c0,0-5.242,130.283-5.304,168.557c0,56.149,12.777,78.135,24.749,78.135c21.55,0,52.273-54.466,52.273-90.158
		c0-93.5,40.858-152.356,94.349-152.356c26.646,0,41.734,11.285,56.821,31.693c-2.778-15.774,1.935-22.35,15.657-22.35
		c10.933,0,19.469,1.687,30.227,5.96c7.523,3.329,12.705,6.631,12.705,14.496l-3.283,124.501c0,76.611,8.429,94.954,26.517,94.954
		C-130.288-808.339-120.25-844.856-120.25-855.138L-120.25-855.138z"/>
	
		<path id="path4408" sodipodi:nodetypes="ccccc" inkscape:connector-curvature="0" fill="#FFFFFF" stroke="#000000" stroke-width="0.25" d="
		M-326.522-899.126c0-60.138,15.91-113.137,50.002-113.137c20.056,0,40.406,18.316,40.406,83.211
		c0,81.708-29.766,119.703-52.654,119.703C-310.228-809.349-326.522-839.632-326.522-899.126L-326.522-899.126z"/>
	<path id="path4428" inkscape:connector-curvature="0" fill="#FFFFFF" d="M-1182.196,1936.353c-9.136,0-20.98,9.688-27.966,16.136
		c-15.361,13.636-29.275,38.707-29.275,58.831c0,28.595,24.32,39.389,30.471,39.389c2.027,0,3.756-1.046,3.756-3.798
		c0-2.157-1.369-3.952-2.729-5.796c-5.632-8.61-7.441-16.827-7.441-27.91c0-23.107,10.657-44.287,19.498-53.978
		c1.629-1.754,5.314-5.543,6.415-5.543c1.093,0,1.365,0.89,1.365,3.644l-1.027,151.241c0,23.643-6.822,33.036-6.822,38.602
		c0,2.446,1.058,3.081,3.081,3.081c9.575,0,19.116-11.669,21.819-15.925c8.382-14.477,10.438-25.78,10.438-58.38v-127.088
		c0-3.44-0.966-4.926-4.234-7.048C-1169.627,1938.777-1175.103,1936.353-1182.196,1936.353L-1182.196,1936.353z M-908.454,1936.775
		c-4.503,0-6.428,2.353-6.64,9.637l-0.999,30.16l-26.376-0.914c-1.599-0.041-2.325,0.465-3.025,1.871
		c-2.24,4.201-3.418,7.492-3.418,12.971c0,4.462,2.024,4.938,3.827,4.938l27.446,0.788l-0.085,57.621
		c0,12.221-7.711,28.075-21.396,41.261c0,0,1.176-3.982,1.111-8.159c0-11.823-7.611-22.537-17.753-30.119l-24.759-18.626
		c5.19-6.004,13.983-17.912,13.983-27.967c0-7.795-4.902-11.071-14.04-11.071c-12.898,0-27.854,11.813-27.854,29.331
		c0,6.386,2.841,12.134,7.161,16.53c-5.963,11.315-14.402,26.201-20.666,36.801c-4.733,8.117-12.738,20.553-17.472,20.553
		c-3.492,0-5.106-5.494-5.106-26.602c0-17.537,1.246-36.604,1.871-54.906c0-4.195-0.69-8.065-6.134-11.859
		c-5.009-3.21-11.198-7.694-17.57-7.694c-14.168,0-23.822,13.038-30.442,25.786c-6.851,13.211-10.556,24.345-15.784,40.5
		l0.576-55.595c0.179-3.964-0.822-5.503-3.995-6.852c-4.115-1.745-10.171-3.756-15.544-3.756c-4.491,0-5.037,1.935-5.037,6.654
		l-0.604,66.709l-0.07,25.729c0,23.197,2.905,27.066,16.67,27.066c7.621,0,10.063-0.895,10.213-7.231
		c0.208-4.19,2.212-14.341,4.923-24.52c7.928-30.048,17.324-53.815,33.523-71.928c1.69-1.758,2.995-1.129,2.729,1.364
		c0,0-2.561,40.665-2.561,57.298c0,29.582,4.552,45.017,19.273,45.017c14.446,0,28.633-18.56,36.379-31.09l24.843-41.556
		c16.099,13.718,27.333,24.354,27.333,37.293c0,8.042-5.075,15.91-12.801,15.91c-9.66,0-15.831-10.185-22.354-10.185
		c-5.416,0-12.366,10.454-12.366,16.389c0,5.604,12.228,13.533,34.17,13.533c32.39,0,49.766-22.229,60.195-46.845
		c1.997,29.216,13.637,46.282,31.793,46.282c11.909,0,25.674-15.046,31.934-33.425c0,0,0.619,4.771,5.374,14.546
		c6.544,12.765,16.494,18.626,28.853,18.626c15.372,0,28.521-9.319,36.548-24.956c1.217,11.849,11.165,24.899,27.164,24.899
		c10.044,0,19.2-7.695,25.21-20.37c0,0,7.785,20.933,30.302,20.933c12.647,0,27.623-11.715,31.201-20.229l0.395,12.38
		l-33.411,30.808c-9.7,9.417-20.018,22.948-20.018,37.927c0,19.052,17.988,30.007,33.818,30.007
		c16.454,0,27.373-10.425,33.354-19.16c7.527-11.303,10.705-32.607,10.705-53.43l-0.745-31.314
		c22.517-24.751,40.138-58.962,47.984-83.168l17.092-0.45c3.312-0.222,3.147,1.081,2.688,3.011
		c-3.005,12.694-5.627,27.07-5.627,41.387c0,23.653,5.449,33.946,13.279,42.358c6.808,7.048,13.581,9.425,20.708,9.425
		c13.938,0,22.688-11.51,25.462-18.766c6.545,12.765,16.186,18.71,28.544,18.71c15.372,0,28.52-9.319,36.548-24.956
		c1.216,11.849,11.165,24.899,27.164,24.899c11.953,0,18.885-6.898,24.337-19.892c0.112,4.18,0.272,8.636,0.395,12.815
		c0.143,2.162,1.871,3.53,3.418,4.094c5.081,1.922,9.541,2.884,13.547,2.884c10.449,0,12.718-2.146,12.718-8.975
		c0-11.265,0.329-29.065,3.53-43.356c3.399-14.227,8.526-30.335,15.602-41.542c0.637-1.158,2.199-0.854,2.265,0.549
		c1.016,23.979,2.621,64.572,8.919,75.079c3.109,5.012,7.916,8.665,15.108,8.665c3.375,0,7.508-1.438,8.567-2.335
		c1.072-0.836,1.613-1.764,1.548-3.488c0-30.654,9.558-60.331,19.132-80.284c0.262-0.592,1.008-0.638,0.984,0.141l-0.534,22.086
		c0,36.277,2.615,59.195,20.735,70.212c2.774,1.54,6.673,3.024,11.662,3.024c9.271,0,17.679-5.178,21.833-13.505
		c3.386-6.471,6.556-18.926,6.556-25.982c0-2.731,0.032-7.175-4.445-7.175c-2.455,0-3.93,1.809-4.516,4.544
		c-1.427,5.925-2.599,11.007-4.812,16.867c-2.116,5.593-5.275,8.849-9.017,8.849c-4.399,0-6.63-3.461-7.906-5.599
		c-5.614-8.56-6.063-28.224-6.063-44.637l1.351-42.245c0-3.495-1.459-7.678-6.851-10.762c-3.62-2.084-12.777-6.007-18.387-6.007
		c-5.202,0-7.72,2.947-9.594,7.272c-3.521,7.768-15.287,38.237-18.443,63.009c-0.112,0.653-0.925,0.791-0.984-0.042
		c-1.64-17.518-2.481-38.625-2.462-52.866c0-4.304-1.053-10.459-10.185-14.447c-4.438-1.841-8.109-2.968-12.591-2.968
		c-5.563,0-6.758,2.722-8.75,6.33c-6.302,11.641-10.659,26.824-17.191,45.973l0.099-43.82c0-2.049-1.255-4.736-4.853-5.458
		c-8.921-2.05-13.055-2.982-16.572-2.982c-2.56,0-3.967,2.041-3.967,4.248l-0.479,74.714c-1.725,9.147-8.719,30.977-18.64,30.977
		c-8.143,0-11.943-8.25-11.943-42.737l1.478-56.046c0-3.54-2.325-5.028-5.712-6.527c-4.843-1.924-8.696-2.687-13.617-2.687
		c-6.178,0-8.299,2.957-7.048,10.059c-6.792-9.188-13.58-14.265-25.575-14.265c-24.079,0-42.231,28.965-42.231,71.056
		c-0.236,11.803,2.617,23.535,2.617,23.535c-2.18,9.796-7.302,17.781-14.377,17.781c-8.928,0-14.617-12.621-14.617-34.494
		c0-21.938,8.356-46.681,8.356-53.387c0-7.797-5.108-12.731-14.151-12.731c-4.532,0-21.335,3.812-29.95,5.064
		c0,0,0.97-4.103,0.9-7.329c0-7.689-3.608-12.506-12.562-12.506c-10.945,0-18.978,7.814-18.978,21.144
		c0,5.982,3.445,11.515,8.005,14.489c-5.92,24.688-15.544,43.047-29.726,63.558l1.196-83.055c0-2.701-0.719-4.377-6.007-6.43
		c-2.797-1.208-7.354-2.603-13.098-2.603c-8.324,0-7.775,5.946-7.329,10.396c-3.809-6.754-12.148-14.771-25.012-14.771
		c-35.058,0-45.821,53.46-40.543,91.426c0,4.629-4.519,21.06-14.729,21.06c-8.142,0-11.943-8.25-11.943-42.737l1.491-56.046
		c0-3.541-2.339-5.029-5.726-6.527c-4.842-1.924-8.682-2.687-13.604-2.687c-6.177,0-8.298,2.957-7.048,10.058
		c-6.791-9.187-13.594-14.265-25.589-14.265c-24.079,0-42.47,26.49-42.47,68.58c0,16.067-13.835,40.585-23.535,40.585
		c-5.39,0-11.128-9.893-11.128-35.169c0.027-17.229,2.378-75.881,2.378-75.881l33.86-0.549c1.617-0.015,2.552-1.781,3.151-2.869
		c1.556-3.155,2.307-5.256,2.307-9.031c0-3.407-0.682-4.651-5.05-4.896l-33.748-2.026l1.435-31.441
		c0.1-1.985-1.097-3.279-3.264-4.248C-895.368,1939.247-903.379,1936.776-908.454,1936.775L-908.454,1936.775z M-805.971,2019.155
		c9.027,0,18.189,8.235,18.189,37.448c0,36.782-13.4,53.894-23.704,53.894c-9.66,0-16.994-13.635-16.994-40.417
		C-828.479,2043.009-821.318,2019.155-805.971,2019.155L-805.971,2019.155z M-480.84,2019.155c9.028,0,18.189,8.235,18.189,37.448
		c0,36.782-13.4,53.894-23.704,53.894c-9.66,0-16.993-13.635-16.993-40.417C-503.348,2043.009-496.187,2019.155-480.84,2019.155
		L-480.84,2019.155z M-687.058,2019.324c11.783,0,16.994,12.144,16.994,35.689c0,35.497-10.551,55.708-23.366,55.708
		c-8.182,0-17.588-13.433-17.093-39.854C-710.522,2053.973-705.014,2019.324-687.058,2019.324L-687.058,2019.324z
		 M-667.109,2138.069v13.983c0,46.396-12.363,54.315-22.297,54.315c-3.763,0-12.984-2.842-12.984-14.321
		c0-16.045,16.775-34.298,21.987-39.938L-667.109,2138.069z"/>
</g>
</svg>
