<?xml version="1.0" encoding="utf-8"?>
<!-- Generator: Adobe Illustrator 16.0.0, SVG Export Plug-In . SVG Version: 6.00 Build 0)  -->
<!DOCTYPE svg PUBLIC "-//W3C//DTD SVG 1.1//EN" "http://www.w3.org/Graphics/SVG/1.1/DTD/svg11.dtd">
<svg version="1.1" id="Layer_1" xmlns="http://www.w3.org/2000/svg" xmlns:xlink="http://www.w3.org/1999/xlink" x="0px" y="0px"
	 width="100px" height="100px" viewBox="0 0 100 100" enable-background="new 0 0 100 100" xml:space="preserve">
<line fill="none" stroke="#6B6EB3" stroke-width="2" stroke-linecap="round" stroke-miterlimit="10" x1="33.312" y1="28.798" x2="60.71" y2="28.798"/>
<line fill="none" stroke="#6B6EB3" stroke-width="2" stroke-linecap="round" stroke-miterlimit="10" x1="33.312" y1="49.798" x2="51.71" y2="49.798"/>
<line fill="none" stroke="#6B6EB3" stroke-width="2" stroke-linecap="round" stroke-miterlimit="10" x1="33.312" y1="68.798" x2="54.71" y2="68.798"/>
<path fill="none" stroke="#6B6EB3" stroke-width="2" stroke-linecap="round" stroke-miterlimit="10" d="M78.062,36.247v-25.06
	c0-2.513-2.058-4.567-4.566-4.567H9.566C7.053,6.619,5,8.674,5,11.187v77.627c0,2.511,2.052,4.566,4.566,4.566h25.018"/>
<polygon fill="#6B6EB3" points="15.883,65.588 13.301,68.172 18.577,73.449 26.843,65.184 24.259,62.6 18.577,68.281 "/>
<path fill-rule="evenodd" clip-rule="evenodd" fill="#6B6EB3" d="M79.343,75.698c-0.582-0.629-1.174-1.238-1.771-1.83
	c-1.027-1.042-1.61-1.566-1.748-1.575c-0.041,0.108-0.05,0.12-0.035,0.035c0-0.023,0.012-0.035,0.035-0.035
	c0.062-0.199,0.208-0.755,0.437-1.666l1.218-1.426c0.627-0.975,1.008-1.815,1.137-2.53c0.123-0.711,0.188-1.341,0.196-1.886
	l-0.047-0.518c0.023,0.185,0.123,0.299,0.298,0.345c0.337,0.144,0.592,0.132,0.759-0.034c0.161-0.17,0.513-1.178,1.057-3.025
	l0.782-2.723c0.029-0.243,0.018-0.479-0.035-0.7c-0.1-0.428-0.354-0.574-0.771-0.437c-0.421,0.138-0.585,0.085-0.494-0.161
	l0.252-0.412c0.239-0.961,0.465-1.965,0.679-3.014c0.437-2.094,0.604-3.344,0.504-3.76c-0.129-0.535-0.527-1.505-1.194-2.907
	c-0.706-1.457-1.189-2.29-1.45-2.495c-0.237-0.179-0.006-0.196,0.7-0.059c0.354,0.067,0.732,0.152,1.139,0.252
	c-0.919-1.227-2.088-2.141-3.505-2.747v-0.955l-1.897-2.219l0.334,1.229l-0.419,0.483l-0.652-1.139
	c-0.574-0.981-0.94-1.593-1.093-1.839c-0.108-0.161-0.226-0.264-0.357-0.311l-0.172-0.023l0.482,1.47
	c0.038,0.114,0,0.226-0.114,0.333l-0.173,0.138c-0.283-0.383-0.471-0.653-0.562-0.805l-0.771-1.288
	c-0.108,0.021-0.22,0.05-0.334,0.079c-0.23,0.07-0.354,0.155-0.368,0.254c-0.015,0.082-0.05,0.316-0.103,0.7
	c-0.07,0.304-0.196,0.389-0.381,0.251c-0.176-0.138-0.375-0.266-0.598-0.389l-0.299-0.126l-0.471-0.047
	c-0.223-0.123-0.434-0.234-0.633-0.334c-0.407-0.199-0.56-0.249-0.46-0.149c0.158,0.161,0.24,0.337,0.24,0.527l0.378,0.518
	l-0.85-0.047l-0.714-0.621l-0.806-0.334l0.07,0.311c0.076,0.231,0.161,0.396,0.252,0.495c0.161,0.161,0.322,0.384,0.483,0.668
	c-0.023,0.062-0.062,0.108-0.114,0.138c-0.117,0.061-0.255,0.015-0.416-0.138c-0.091-0.091-0.214-0.17-0.366-0.24
	c-0.085-0.038-0.179-0.167-0.287-0.381c-0.123-0.228-0.239-0.486-0.345-0.77l-0.138-0.369l-0.275,0.53l-0.287,0.091l-0.334-0.231
	l-0.047,0.416c0.062,0,0,0.094-0.185,0.287l-0.758,0.149l0.424,0.117l-1.896-0.401l0.333,0.849l0.425,0.758l0.609,0.38l-0.231,0.334
	c-2.176,1.195-3.388,1.859-3.643,1.988c-0.63,0.313-0.964,0.612-1.002,0.896c-0.018,0.085-0.097,0.246-0.242,0.481
	c-0.1,0.169-0.1,0.307,0,0.414c0.062,0.062-0.026,0.319-0.264,0.771c-0.369,0.645-0.662,1.165-0.885,1.563
	c-0.913,1.646-1.35,2.879-1.312,3.689c0.038,0.853,0.264,2,0.676,3.449c0.208,0.729,0.407,1.395,0.598,2
	c-0.278-0.223-0.564-0.346-0.863-0.369c-0.604-0.038-0.946,0.445-1.022,1.45c-0.082,1.086,0.097,2.523,0.542,4.31
	c0.407,1.648,0.717,2.504,0.931,2.565s0.592-0.006,1.137-0.196l0.035,0.759c0.053,0.611,0.141,1.209,0.264,1.792
	c0.386,1.848,1.039,3.145,1.968,3.896c0.559,0.445,0.995,1.049,1.309,1.807c-0.132,0.123-0.258,0.375-0.381,0.759
	c-0.152,0.48-0.401,0.888-0.747,1.218c-0.397,0.231-0.796,0.56-1.194,0.99c-0.805,0.866-1.206,1.801-1.206,2.805
	c0,0.176,0,0.334,0,0.472c-1.295,0.645-2.642,1.335-4.035,2.07c-2.872,1.493-4.609,2.475-5.206,2.942
	c-0.712,0.167-1.441,0.36-2.185,0.572c0,0-7.882,1.913-8.007,3.538s0,7.006,0,7.006h57.401v-8.75v-4.404
	C93.655,80.431,88.01,78.589,79.343,75.698z"/>
<path fill="#6B6EB3" d="M14.886,50.646c-1.105-1.084-1.585-2.273-1.585-3.336c0-1.815,1.21-3.025,3.045-3.025
	c1.709,0,2.294,0.793,3.295,1.939c1.001-1.146,1.585-1.939,3.295-1.939c1.836,0,3.046,1.21,3.046,3.025
	c0,1.062-0.48,2.252-1.585,3.336l-4.756,4.734L14.886,50.646z"/>
<path fill="#6B6EB3" d="M24.882,31.576c0,0.31-0.244,0.554-0.555,0.554h-1.11h-0.022c-0.022,0-0.022,0-0.044,0h-0.022h-0.022
	c0,0-0.021,0-0.021,0.023c0,0-0.023,0-0.023,0.021l-0.022,0.022l-0.021,0.022l-0.022,0.022l-0.022,0.021l-0.022,0.023l-0.022,0.021
	c0,0,0,0.022-0.022,0.022v0.023c-0.222,0.798-0.777,1.975-1.265,2.175c-0.045-0.111-0.134-0.289-0.178-0.444
	c-0.311-0.755-0.755-1.864-1.598-1.954c-0.022,0-0.045,0-0.089,0h-5.55c-0.311,0-0.555-0.244-0.555-0.554v-6.771
	c0-0.311,0.244-0.555,0.555-0.555H24.35c0.311,0,0.555,0.244,0.555,0.555v6.771H24.882z"/>
</svg>
