<?xml version="1.0" encoding="utf-8"?>
<!-- Generator: Adobe Illustrator 16.0.0, SVG Export Plug-In . SVG Version: 6.00 Build 0)  -->
<!DOCTYPE svg PUBLIC "-//W3C//DTD SVG 1.1//EN" "http://www.w3.org/Graphics/SVG/1.1/DTD/svg11.dtd">
<svg version="1.1" id="Layer_1" xmlns="http://www.w3.org/2000/svg" xmlns:xlink="http://www.w3.org/1999/xlink" x="0px" y="0px"
	 width="406px" height="132px" viewBox="0 0 406 132" enable-background="new 0 0 406 132" xml:space="preserve">
<g>
	<path fill="#FFFFFF" d="M306.805,96.308c21.646,0.575,37.691-7.648,37.691-23.744c0-11.873-9.164-20.547-23.613-20.547
		c-19.377,0-29.457,14.896-33.488,30.8c-2.352,9.296-5.936,21.504-13.104,21.504c-4.48,0-5.713-4.48-5.713-10.08
		c0-4.48,0-12.656,0-18.704c0-15.344-7.504-23.52-19.264-23.52c-10.416,0-18.473,6.271-23.064,13.887l-0.447-12.879
		c-3.92,0-15.119,0-15.119,0s-1.676,51.296-18.594,51.296c-5.824,0-7.727-6.615-7.727-14.112V53.024H169.58
		c-7.84,8.848-18.359,11.535-26.2,11.535c-14.112,0-24.976-9.855-24.976-26.992c0-8.399,3.248-12.768,7.84-12.768
		c4.368,0,7.28,3.92,7.28,11.872c0,4.521-1.211,9.477-2.104,12.408c0,0,4.349,7.586,16.239,5.258
		c2.525-5.605,3.897-12.865,3.897-19.233C151.556,17.968,142.82,8,126.804,8c-16.464,0-26.097,12.656-26.097,29.345
		c0,16.532,7.729,30.724,20.473,37.189c-5.358,10.72-12.178,20.162-19.288,27.276C88.989,86.214,77.324,65.406,72.539,24.8H53.503
		c8.794,67.628,35.003,89.161,41.932,93.296c3.92,2.353,7.296,2.24,10.88,0.224c5.627-3.199,22.521-20.091,31.885-39.877
		c8.402-0.022,20.421-2.007,28.131-7.837v19.267c0,21.728,8.288,30.128,21.167,30.128c10.332,0,18.309-8.054,22.176-17.09v15.857
		h17.809v-18.704c0-21.392,7.16-31.808,16.121-31.808c5.039,0,7.168,3.36,7.168,11.872c0,5.04,0,12.096,0,17.024
		c0,14.447,7.615,22.848,19.039,22.848c9.387,0,17.812-7.322,21.129-16.582C296.6,115.12,309.631,120,320.994,120
		c8.586,0,15.584-1.782,21.037-5.03V98.731c-4.613,3.141-10.305,5.812-18.572,5.812C315.574,104.544,309.633,102.046,306.805,96.308
		z M320.77,67.696c4.93,0,7.262,2.627,7.262,5.875c0,4.304-4.008,11.599-22.984,11.815C305.797,74.973,312.635,67.696,320.77,67.696
		z"/>
	<path fill="#FFFFFF" d="M172.375,46.728c6.831,0,11.536-5.151,11.536-11.76c0-6.607-4.705-11.647-11.536-11.647
		c-6.832,0-11.424,4.592-11.424,11.647C160.951,42.024,165.542,46.728,172.375,46.728z"/>
</g>
</svg>
